<svg xmlns="http://www.w3.org/2000/svg" viewBox="0 0 40 40" fill="none">
  <rect width="40" height="40" rx="10" fill="#008cc7" fill-opacity="0.15"/>
  <path d="M20 8c-1.5 0-2.8 1-3.2 2.4l-1.8 6.2h-2.5c-.8 0-1.5.7-1.5 1.5v1c0 .8.7 1.5 1.5 1.5h12.5c.8 0 1.5-.7 1.5-1.5v-1c0-.8-.7-1.5-1.5-1.5h-2.5l-1.8-6.2C22.8 9 21.5 8 20 8z" fill="#ffffff"/>
  <path d="M14 22h12v2H14v-2zm0 4h8v2h-8v-2z" fill="#00bcd4"/>
  <circle cx="20" cy="14" r="2" fill="#00bcd4"/>
  <path d="M16 28h8" stroke="#00bcd4" stroke-width="1.5" stroke-linecap="round"/>
</svg>
